<svg width="20" height="20" viewBox="0 0 20 20" fill="none" xmlns="http://www.w3.org/2000/svg">
<g id="notifications">
<mask id="mask0_615_11645" style="mask-type:alpha" maskUnits="userSpaceOnUse" x="0" y="0" width="20" height="20">
<rect id="Bounding box" width="20" height="20" fill="#D9D9D9"/>
</mask>
<g mask="url(#mask0_615_11645)">
<path id="notifications_2" d="M4.375 15.7372C4.19792 15.7372 4.04948 15.6773 3.92969 15.5574C3.8099 15.4376 3.75 15.2891 3.75 15.1119C3.75 14.9348 3.8099 14.7863 3.92969 14.6667C4.04948 14.547 4.19792 14.4872 4.375 14.4872H5.25642V8.26923C5.25642 7.14851 5.6023 6.1576 6.29406 5.29648C6.98584 4.43537 7.87393 3.88463 8.95833 3.64426V3.12503C8.95833 2.83568 9.05951 2.58973 9.26188 2.38719C9.46424 2.18464 9.70996 2.08336 9.99904 2.08336C10.2881 2.08336 10.5342 2.18464 10.7371 2.38719C10.9401 2.58973 11.0416 2.83568 11.0416 3.12503V3.64426C12.126 3.88463 13.0141 4.43537 13.7059 5.29648C14.3977 6.1576 14.7435 7.14851 14.7435 8.26923V14.4872H15.625C15.802 14.4872 15.9505 14.5471 16.0703 14.667C16.1901 14.7868 16.25 14.9353 16.25 15.1125C16.25 15.2896 16.1901 15.438 16.0703 15.5577C15.9505 15.6773 15.802 15.7372 15.625 15.7372H4.375ZM9.99856 18.0769C9.58391 18.0769 9.22942 17.9294 8.93508 17.6344C8.64075 17.3394 8.49358 16.9848 8.49358 16.5705H11.5064C11.5064 16.9861 11.3587 17.3411 11.0635 17.6354C10.7682 17.9297 10.4132 18.0769 9.99856 18.0769ZM6.50638 14.4872H13.4936V8.26923C13.4936 7.30448 13.1525 6.48103 12.4703 5.79888C11.7882 5.11671 10.9647 4.77563 9.99998 4.77563C9.03523 4.77563 8.21178 5.11671 7.52963 5.79888C6.84746 6.48103 6.50638 7.30448 6.50638 8.26923V14.4872Z" fill="white"/>
</g>
</g>
</svg>
