<svg width="20" height="20" viewBox="0 0 20 20" fill="none" xmlns="http://www.w3.org/2000/svg">
<g id="person_3">
<mask id="mask0_615_11649" style="mask-type:alpha" maskUnits="userSpaceOnUse" x="0" y="0" width="20" height="20">
<rect id="Bounding box" width="20" height="20" fill="#FEF4E7"/>
</mask>
<g mask="url(#mask0_615_11649)">
<path id="person_3_2" d="M8.33331 11.4102C7.75106 11.4102 7.25828 11.2059 6.85496 10.7973C6.45165 10.3886 6.25 9.89851 6.25 9.32694C6.25 8.98398 6.31731 8.69979 6.45194 8.47438C6.58655 8.24895 6.71368 8.00643 6.83333 7.74681C6.79915 7.59725 6.76283 7.44607 6.72437 7.29329C6.6859 7.14052 6.66667 6.98506 6.66667 6.82694C6.66667 6.38287 6.78633 5.98847 7.02565 5.64373C7.26497 5.29901 7.6031 5.03477 8.04006 4.851C8.28578 4.58498 8.56409 4.36168 8.87498 4.18113C9.18588 4.00057 9.56088 3.91029 9.99998 3.91029C10.4498 3.91029 10.8274 4.00325 11.133 4.18915C11.4385 4.37505 11.7142 4.59567 11.9599 4.851C12.3969 5.03477 12.735 5.29901 12.9743 5.64373C13.2136 5.98847 13.3333 6.38287 13.3333 6.82694C13.3333 6.98506 13.3141 7.14052 13.2756 7.29329C13.2371 7.44607 13.2008 7.59725 13.1666 7.74681C13.2863 8.00643 13.4134 8.24895 13.548 8.47438C13.6826 8.69979 13.75 8.98398 13.75 9.32694C13.75 9.89851 13.5483 10.3886 13.145 10.7973C12.7417 11.2059 12.2489 11.4102 11.6666 11.4102H8.33331ZM8.33331 10.1603H11.6666C11.9028 10.1603 12.1007 10.0769 12.2604 9.91027C12.4201 9.74361 12.5 9.54916 12.5 9.32694C12.5 9.22972 12.4826 9.13944 12.4479 9.05611C12.4132 8.97277 12.3611 8.88944 12.2916 8.80611C12.1389 8.62555 12.0382 8.44847 11.9896 8.27486C11.941 8.10125 11.9166 7.93805 11.9166 7.78527C11.9166 7.56305 11.9444 7.37208 12 7.21236C12.0555 7.05263 12.0833 6.92416 12.0833 6.82694C12.0833 6.66027 12.0347 6.5075 11.9375 6.36861C11.8403 6.22972 11.7153 6.12555 11.5625 6.05611C11.4375 6.00055 11.3229 5.93805 11.2187 5.86861C11.1146 5.79916 11.0208 5.70888 10.9375 5.59777C10.868 5.51444 10.7535 5.42069 10.5937 5.31652C10.434 5.21236 10.2361 5.16027 9.99998 5.16027C9.76387 5.16027 9.56595 5.21583 9.40623 5.32694C9.24651 5.43805 9.13192 5.53527 9.06248 5.61861C8.97915 5.71583 8.8854 5.79916 8.78123 5.86861C8.67706 5.93805 8.56248 6.00055 8.43748 6.05611C8.2847 6.12555 8.1597 6.22972 8.06248 6.36861C7.96526 6.5075 7.91665 6.66027 7.91665 6.82694C7.91665 6.92416 7.94442 7.05263 7.99998 7.21236C8.05553 7.37208 8.08331 7.56305 8.08331 7.78527C8.08331 7.93805 8.05901 8.10125 8.0104 8.27486C7.96178 8.44847 7.86109 8.62555 7.70831 8.80611C7.63887 8.88944 7.58678 8.97277 7.55206 9.05611C7.51734 9.13944 7.49998 9.22972 7.49998 9.32694C7.49998 9.54916 7.57984 9.74361 7.73956 9.91027C7.89928 10.0769 8.0972 10.1603 8.33331 10.1603ZM3.75 16.4904V15.9038C3.75 15.4957 3.86085 15.1178 4.08254 14.77C4.30422 14.4223 4.60042 14.1549 4.97115 13.968C5.79487 13.5641 6.6258 13.2612 7.46394 13.0593C8.30208 12.8574 9.14742 12.7564 9.99998 12.7564C10.8525 12.7564 11.6979 12.8574 12.536 13.0593C13.3742 13.2612 14.2051 13.5641 15.0288 13.968C15.3995 14.1549 15.6957 14.4223 15.9174 14.77C16.1391 15.1178 16.25 15.4957 16.25 15.9038V16.4904C16.25 16.8419 16.1268 17.1407 15.8806 17.387C15.6343 17.6332 15.3354 17.7564 14.984 17.7564H5.016C4.66451 17.7564 4.36565 17.6332 4.1194 17.387C3.87313 17.1407 3.75 16.8419 3.75 16.4904ZM4.99998 16.5064H15V15.9038C15 15.735 14.9511 15.5788 14.8533 15.4351C14.7556 15.2914 14.6228 15.1741 14.4551 15.0833C13.7372 14.7297 13.0051 14.4618 12.2589 14.2796C11.5127 14.0975 10.7597 14.0064 9.99998 14.0064C9.24023 14.0064 8.48726 14.0975 7.74106 14.2796C6.99487 14.4618 6.2628 14.7297 5.54485 15.0833C5.37712 15.1741 5.24437 15.2914 5.14662 15.4351C5.04886 15.5788 4.99998 15.735 4.99998 15.9038V16.5064Z" fill="white"/>
</g>
</g>
</svg>
