<svg width="20" height="20" viewBox="0 0 20 20" fill="none" xmlns="http://www.w3.org/2000/svg">
<g id="settings">
<mask id="mask0_615_11653" style="mask-type:alpha" maskUnits="userSpaceOnUse" x="0" y="0" width="20" height="20">
<rect id="Bounding box" width="20" height="20" fill="#D9D9D9"/>
</mask>
<g mask="url(#mask0_615_11653)">
<path id="settings_2" d="M9.07692 17.9167C8.79273 17.9167 8.54727 17.8224 8.34055 17.6338C8.13383 17.4452 8.00803 17.2131 7.96315 16.9375L7.75963 15.3782C7.53634 15.3034 7.30744 15.1987 7.07293 15.0641C6.83841 14.9295 6.62874 14.7852 6.4439 14.6314L4.99999 15.2452C4.73824 15.3605 4.47515 15.3718 4.21074 15.2788C3.94632 15.1859 3.74093 15.0171 3.59457 14.7724L2.65547 13.1442C2.50911 12.8996 2.4669 12.6408 2.52886 12.3678C2.59083 12.0948 2.73292 11.8697 2.95513 11.6923L4.20355 10.7548C4.18431 10.6309 4.17069 10.5064 4.16267 10.3814C4.15466 10.2564 4.15065 10.132 4.15065 10.008C4.15065 9.88943 4.15466 9.76896 4.16267 9.64663C4.17069 9.5243 4.18431 9.39048 4.20355 9.24519L2.95513 8.30767C2.73292 8.13032 2.59217 7.90384 2.53286 7.62821C2.47357 7.35257 2.51711 7.09243 2.66349 6.84778L3.59457 5.24361C3.74093 5.0043 3.94632 4.83684 4.21074 4.74121C4.47515 4.6456 4.73824 4.65548 4.99999 4.77086L6.43588 5.37665C6.63674 5.21746 6.85122 5.07189 7.07932 4.93994C7.30743 4.80798 7.53153 4.70194 7.75161 4.62182L7.96315 3.06251C8.00803 2.78688 8.13383 2.55478 8.34055 2.36621C8.54727 2.17764 8.79273 2.08336 9.07692 2.08336H10.9231C11.2072 2.08336 11.4527 2.17764 11.6594 2.36621C11.8661 2.55478 11.9919 2.78688 12.0368 3.06251L12.2403 4.62984C12.4903 4.72064 12.7166 4.82668 12.9191 4.94794C13.1215 5.06921 13.3258 5.21211 13.532 5.37665L15.008 4.77086C15.2698 4.65548 15.5328 4.6456 15.7973 4.74121C16.0617 4.83684 16.2671 5.0043 16.4134 5.24361L17.3445 6.8558C17.4909 7.10045 17.5331 7.35926 17.4711 7.63221C17.4091 7.90517 17.2671 8.13032 17.0448 8.30767L15.7644 9.26921C15.7943 9.40384 15.8106 9.52964 15.8133 9.64663C15.8159 9.76362 15.8173 9.88141 15.8173 10C15.8173 10.1133 15.8146 10.2284 15.8093 10.3454C15.8039 10.4623 15.7847 10.5962 15.7516 10.7468L17.008 11.6923C17.2302 11.8697 17.3736 12.0948 17.4383 12.3678C17.5029 12.6408 17.462 12.8996 17.3157 13.1442L16.3718 14.7644C16.2254 15.0091 16.0187 15.1779 15.7516 15.2708C15.4845 15.3638 15.2201 15.3525 14.9583 15.2372L13.532 14.6234C13.3258 14.7879 13.1154 14.9335 12.9006 15.0601C12.6859 15.1867 12.4658 15.29 12.2403 15.3702L12.0368 16.9375C11.9919 17.2131 11.8661 17.4452 11.6594 17.6338C11.4527 17.8224 11.2072 17.9167 10.9231 17.9167H9.07692ZM9.16665 16.6667H10.8045L11.1042 14.4343C11.5294 14.3232 11.918 14.1653 12.27 13.9607C12.622 13.7562 12.9615 13.4931 13.2884 13.1715L15.359 14.0417L16.1795 12.625L14.3718 11.2628C14.4412 11.047 14.4885 10.8355 14.5136 10.6282C14.5387 10.4209 14.5513 10.2115 14.5513 10C14.5513 9.78313 14.5387 9.57373 14.5136 9.3718C14.4885 9.16988 14.4412 8.96369 14.3718 8.75321L16.1955 7.37501L15.375 5.95834L13.2804 6.84136C13.0016 6.54328 12.6675 6.27992 12.278 6.0513C11.8886 5.82266 11.4946 5.6608 11.0961 5.56571L10.8333 3.33334H9.17947L8.90384 5.55769C8.47862 5.65812 8.08599 5.81197 7.72595 6.01923C7.3659 6.2265 7.02243 6.4936 6.69551 6.82053L4.62499 5.95834L3.80447 7.37501L5.60415 8.71636C5.53471 8.914 5.4861 9.11966 5.45832 9.33334C5.43054 9.54702 5.41665 9.77192 5.41665 10.008C5.41665 10.2249 5.43054 10.4375 5.45832 10.6458C5.4861 10.8542 5.53204 11.0598 5.59613 11.2628L3.80447 12.625L4.62499 14.0417L6.68749 13.1667C7.00372 13.4915 7.34186 13.7575 7.7019 13.9648C8.06195 14.172 8.45992 14.3312 8.89582 14.4423L9.16665 16.6667ZM10.0096 12.5C10.703 12.5 11.293 12.2567 11.7796 11.77C12.2663 11.2834 12.5096 10.6934 12.5096 10C12.5096 9.30664 12.2663 8.71664 11.7796 8.22998C11.293 7.74335 10.703 7.50003 10.0096 7.50003C9.30769 7.50003 8.71555 7.74335 8.23318 8.22998C7.75081 8.71664 7.50963 9.30664 7.50963 10C7.50963 10.6934 7.75081 11.2834 8.23318 11.77C8.71555 12.2567 9.30769 12.5 10.0096 12.5Z" fill="white"/>
</g>
</g>
</svg>
