<svg width="55" height="9" viewBox="0 0 55 9" fill="none" xmlns="http://www.w3.org/2000/svg">
<g id=" ">
<g id="farmers for">
<path d="M3.02288 7.87433H1.62266V3.59945H0.747528V2.32388H1.62266V2.0251C1.62266 0.841462 2.34465 0.0945069 3.40575 0.0945069C3.90895 0.0945069 4.09491 0.0278625 4.54536 0.240188L4.33305 1.32165C4.18046 1.24367 3.93083 1.24367 3.67922 1.24367C3.29635 1.24367 3.02288 1.50798 3.02288 2.0251V2.32388H4.09491V3.59945H3.02288V7.87433Z" fill="white"/>
<path d="M9.67551 7.87433H8.28624V7.29975C7.92525 7.74792 7.30171 8.01223 6.61255 8.01223C5.77023 8.01223 4.77477 7.41467 4.77477 6.17357C4.77477 4.87502 5.77023 4.38088 6.61255 4.38088C7.31265 4.38088 7.93619 4.6222 8.28624 5.05889V4.31193C8.28624 3.74884 7.82679 3.38111 7.12669 3.38111C6.55785 3.38111 6.03277 3.59945 5.58426 4.03613L5.05918 3.05934C5.70459 2.46178 6.53597 2.18598 7.36735 2.18598C8.57066 2.18598 9.67551 2.69161 9.67551 4.28895V7.87433ZM7.17044 7.02395C7.61895 7.02395 8.05652 6.86307 8.28624 6.5413V5.85181C8.05652 5.53004 7.61895 5.36916 7.17044 5.36916C6.62348 5.36916 6.17498 5.66794 6.17498 6.20805C6.17498 6.72517 6.62348 7.02395 7.17044 7.02395Z" fill="white"/>
<path d="M12.6616 7.87433H11.2723V2.32388H12.6616V3.08233C13.0335 2.58819 13.6898 2.18598 14.3462 2.18598V3.61094C14.2477 3.58796 14.1165 3.57647 13.9633 3.57647C13.5039 3.57647 12.8913 3.85227 12.6616 4.20851V7.87433Z" fill="white"/>
<path d="M23.3858 7.87433H21.9856V4.36939C21.9856 3.85227 21.7668 3.48453 21.198 3.48453C20.7057 3.48453 20.3009 3.82928 20.104 4.12807V7.87433H18.7038V4.36939C18.7038 3.85227 18.485 3.48453 17.9162 3.48453C17.4349 3.48453 17.0301 3.82928 16.8223 4.13956V7.87433H15.433V2.32388H16.8223V3.04785C17.0411 2.7146 17.7412 2.18598 18.5507 2.18598C19.3274 2.18598 19.8196 2.56521 20.0165 3.19724C20.3228 2.69161 21.0229 2.18598 21.8324 2.18598C22.806 2.18598 23.3858 2.72609 23.3858 3.86376V7.87433Z" fill="white"/>
<path d="M27.4504 8.01223C25.8423 8.01223 24.6281 6.87456 24.6281 5.09336C24.6281 3.48453 25.7548 2.18598 27.3629 2.18598C28.9381 2.18598 30.0101 3.42708 30.0101 5.24275V5.56452H26.083C26.1705 6.26551 26.7065 6.85158 27.6035 6.85158C28.052 6.85158 28.6756 6.64473 29.0147 6.29998L29.6273 7.24229C29.1022 7.74792 28.2708 8.01223 27.4504 8.01223ZM28.6646 4.57624C28.6318 4.04762 28.2818 3.34664 27.3629 3.34664C26.4987 3.34664 26.1267 4.02464 26.0611 4.57624H28.6646Z" fill="white"/>
<path d="M32.6217 7.87433H31.2324V2.32388H32.6217V3.08233C32.9936 2.58819 33.65 2.18598 34.3063 2.18598V3.61094C34.2079 3.58796 34.0766 3.57647 33.9235 3.57647C33.464 3.57647 32.8514 3.85227 32.6217 4.20851V7.87433Z" fill="white"/>
<path d="M37.2966 8.01223C36.3777 8.01223 35.4916 7.69047 34.9337 7.15036L35.5354 6.12761C35.9182 6.50683 36.7059 6.88605 37.3622 6.88605C37.9639 6.88605 38.2483 6.63324 38.2483 6.28849C38.2483 5.36916 35.1087 6.11612 35.1087 3.93271C35.1087 3.00189 35.8854 2.18598 37.2747 2.18598C38.1717 2.18598 38.8827 2.50775 39.4078 2.94443L38.8499 3.9442C38.5327 3.58796 37.931 3.30067 37.2856 3.30067C36.7824 3.30067 36.4543 3.54199 36.4543 3.85227C36.4543 4.67966 39.5829 3.99017 39.5829 6.23103C39.5829 7.24229 38.7624 8.01223 37.2966 8.01223Z" fill="white"/>
</g>
<g id="farmers for_2">
<path d="M42.9069 7.62566H42.0895V3.15701H41.2175V2.44974H42.0895V2.05324C42.0895 0.992342 42.678 0.370804 43.6153 0.370804C44.0295 0.370804 44.4001 0.467249 44.727 0.767302L44.3892 1.2924C44.2148 1.14237 44.0077 1.03521 43.7352 1.03521C43.2012 1.03521 42.9069 1.39956 42.9069 2.05324V2.44974H43.975V3.15701H42.9069V7.62566Z" fill="white"/>
<path d="M47.4649 7.75425C45.8628 7.75425 44.86 6.53261 44.86 5.03234C44.86 3.53208 45.8628 2.32115 47.4649 2.32115C49.0671 2.32115 50.0698 3.53208 50.0698 5.03234C50.0698 6.53261 49.0671 7.75425 47.4649 7.75425ZM47.4649 7.03627C48.5875 7.03627 49.2088 6.09324 49.2088 5.03234C49.2088 3.98216 48.5875 3.03913 47.4649 3.03913C46.3423 3.03913 45.7102 3.98216 45.7102 5.03234C45.7102 6.09324 46.3423 7.03627 47.4649 7.03627Z" fill="white"/>
<path d="M52.4378 7.62566H51.6204V2.44974H52.4378V3.2856C52.8629 2.73908 53.4732 2.34258 54.1926 2.34258V3.16773C54.0945 3.14629 53.9964 3.13558 53.8656 3.13558C53.3642 3.13558 52.6776 3.54279 52.4378 3.96072V7.62566Z" fill="white"/>
</g>
</g>
</svg>
