<svg width="92" height="21" viewBox="0 0 92 21" fill="none" xmlns="http://www.w3.org/2000/svg">
<g id=" ">
<path d="M6.85201 20.6456H3.22473V9.65919H0.957687V6.38099H3.22473V5.61312C3.22473 2.57119 5.09505 0.65152 7.84384 0.65152C9.14739 0.65152 10.0542 0.781647 10.9862 1.44124L10.152 4.0603C9.78363 3.67637 9.20406 3.60485 8.55229 3.60485C7.56046 3.60485 6.85201 4.28412 6.85201 5.61312V6.38099H9.62913V9.65919H6.85201V20.6456Z" fill="white"/>
<path d="M18.6165 21C14.1108 21 11.3903 17.5741 11.3903 13.4985C11.3903 9.45246 14.1108 6.02659 18.6165 6.02659C23.1506 6.02659 25.8711 9.45246 25.8711 13.4985C25.8711 17.5741 23.1506 21 18.6165 21ZM18.6165 17.6627C20.8552 17.6627 22.1304 15.7431 22.1304 13.4985C22.1304 11.2835 20.8552 9.36386 18.6165 9.36386C16.3778 9.36386 15.1309 11.2835 15.1309 13.4985C15.1309 15.7431 16.3778 17.6627 18.6165 17.6627Z" fill="white"/>
<path d="M32.7067 20.6456H29.1078V6.38099H32.7067V8.33019C33.6702 7.06026 35.3705 6.02659 37.0708 6.02659V9.68872C36.8157 9.62966 36.4757 9.60012 36.079 9.60012C34.8888 9.60012 33.3018 10.3089 32.7067 11.2245V20.6456Z" fill="white"/>
<path d="M46.319 21C42.1533 21 39.0077 18.0762 39.0077 13.4985C39.0077 9.36386 41.9266 6.02659 46.0923 6.02659C50.1729 6.02659 52.9501 9.21619 52.9501 13.8825V14.7094H42.7767C43.0034 16.5109 44.392 18.0171 46.7157 18.0171C47.8776 18.0171 49.4928 17.4855 50.3713 16.5995L51.9582 19.0213C50.598 20.3207 48.4443 21 46.319 21ZM49.4645 12.1695C49.3795 10.811 48.4727 9.00946 46.0923 9.00946C43.8535 9.00946 42.8901 10.7519 42.72 12.1695H49.4645Z" fill="white"/>
<path d="M61.0472 21C58.6668 21 56.3714 20.1731 54.9262 18.785L56.4848 16.1565C57.4766 17.1311 59.517 18.1057 61.2173 18.1057C62.7758 18.1057 63.5126 17.456 63.5126 16.57C63.5126 14.2073 55.3796 16.127 55.3796 10.5157C55.3796 8.12346 57.3916 6.02659 60.9906 6.02659C63.3143 6.02659 65.1562 6.85352 66.5165 7.97579L65.0712 10.5452C64.2494 9.62966 62.6908 8.89132 61.0189 8.89132C59.7153 8.89132 58.8652 9.51152 58.8652 10.3089C58.8652 12.4353 66.9699 10.6633 66.9699 16.4223C66.9699 19.0213 64.8445 21 61.0472 21Z" fill="white"/>
<path d="M74.7788 21C72.2567 21 70.8965 19.6415 70.8965 17.1016V9.65919H68.6294V6.38099H70.8965V2.48259H74.5237V6.38099H77.3009V9.65919H74.5237V16.0975C74.5237 16.9835 74.9772 17.6627 75.7706 17.6627C76.309 17.6627 76.8191 17.456 77.0175 17.2493L77.7826 20.0845C77.2442 20.5865 76.2807 21 74.7788 21Z" fill="white"/>
<path d="M85.2608 21C82.8804 21 80.585 20.1731 79.1397 18.785L80.6983 16.1565C81.6902 17.1311 83.7305 18.1057 85.4308 18.1057C86.9894 18.1057 87.7262 17.456 87.7262 16.57C87.7262 14.2073 79.5932 16.127 79.5932 10.5157C79.5932 8.12346 81.6052 6.02659 85.2041 6.02659C87.5278 6.02659 89.3698 6.85352 90.73 7.97579L89.2848 10.5452C88.463 9.62966 86.9044 8.89132 85.2324 8.89132C83.9289 8.89132 83.0787 9.51152 83.0787 10.3089C83.0787 12.4353 91.1834 10.6633 91.1834 16.4223C91.1834 19.0213 89.0581 21 85.2608 21Z" fill="white"/>
</g>
</svg>
