<svg width="27" height="32" viewBox="0 0 27 32" fill="none" xmlns="http://www.w3.org/2000/svg">
<g id="hornbill">
<path id="Vector" d="M5.17959 0.170481C4.92389 0.386843 4.91733 0.635988 5.14681 1.3113C5.29761 1.75714 5.61232 2.47179 5.69755 2.55703C5.74344 2.60292 5.88769 2.83895 5.94014 2.95041C5.98699 3.04411 6.06076 3.12072 6.11949 3.20747C6.14233 3.24121 6.16659 3.279 6.18928 3.31758C6.37286 3.60606 6.79248 4.0519 7.13997 4.32727C7.30388 4.45184 7.49402 4.6092 7.55958 4.6682C7.6317 4.73377 7.76939 4.82556 7.87429 4.8649C8.11688 4.97636 8.07754 5.06159 7.72349 5.14682C7.56614 5.19272 7.29077 5.29107 7.10719 5.36974C6.93016 5.44842 6.67446 5.55988 6.54989 5.61889C6.1565 5.79591 5.22548 6.35977 4.84521 6.65481C4.35348 7.03508 3.62571 7.76285 3.29133 8.19557C2.66847 9.02169 2.05216 10.2477 1.79646 11.1788C1.73745 11.3951 1.66533 11.6312 1.63255 11.7033C1.46864 12.1229 1.1736 14.0505 1.1736 14.7061C1.1736 15.1192 1.18671 15.1716 1.37029 15.3552C1.54732 15.5322 1.60632 15.5519 1.84891 15.5191C2.05872 15.4929 2.18329 15.4142 2.42588 15.1651C2.79304 14.7848 2.98974 14.6209 3.07497 14.6209C3.11431 14.6209 3.14053 14.5947 3.14053 14.5619C3.14053 14.4963 3.99287 13.8472 4.32069 13.6637C4.44527 13.5981 4.56328 13.5194 4.58295 13.4997C4.6354 13.4407 5.33842 13.1499 5.55986 13.0473C5.88326 12.9075 6.20983 12.7749 6.54361 12.6621C6.79225 12.578 7.0891 12.4831 7.32355 12.4245C8.73319 12.0704 10.11 12.0442 12.0573 12.3392C12.3261 12.3786 12.5884 12.4376 12.6343 12.4769C12.6867 12.5163 12.7129 12.7589 12.7129 13.2375C12.7129 13.6178 12.7457 14.1292 12.7785 14.3783C13.1194 16.719 15.2372 18.4302 17.5975 18.2663L17.9607 18.238C18.0336 18.2324 18.0719 18.3227 18.0171 18.3712C17.3418 18.9547 16.3387 19.4858 15.4011 19.7677C15.0995 19.8595 14.5094 19.9644 14.0964 20.0037C13.067 20.1021 13.0539 20.1021 12.9096 20.3447C12.7326 20.6332 12.7457 20.8692 12.9555 21.1183C13.0671 21.2506 13.2339 21.3233 13.4068 21.3151L13.9587 21.2888C16.8763 21.1642 19.5972 19.3743 20.9478 16.6993C21.6101 15.3946 21.8526 14.339 21.8461 12.8179C21.8395 11.8475 21.7609 11.2902 21.5183 10.4903C21.2494 9.59865 20.6922 8.42505 20.502 8.33982C20.4692 8.3267 20.4496 8.28736 20.4496 8.25458C20.4496 8.01855 18.6662 6.09751 18.4433 6.09751C18.4236 6.09751 18.2794 5.99916 18.122 5.87459C17.9647 5.75657 17.5516 5.51399 17.2041 5.34352C16.8632 5.17305 16.5813 5.02225 16.5813 5.00914C16.5813 4.98947 16.6599 4.89768 16.7648 4.79933C16.8632 4.70099 17.0009 4.51085 17.073 4.37317C17.1451 4.24203 17.2172 4.13058 17.2435 4.13058C17.2631 4.13058 17.3549 3.84865 17.4336 3.50116C17.5778 2.92419 17.5778 2.83895 17.4992 2.43901C17.4008 1.94072 17.3484 1.80304 17.0795 1.34408C16.7321 0.754004 16.2862 0.413069 15.4994 0.137697C15.1192 1.33514e-05 15.0012 1.14441e-05 10.2477 1.14441e-05H5.64811C5.47676 1.14441e-05 5.31088 0.0603657 5.17959 0.170481ZM15.5191 1.4621C15.9387 1.72436 16.1748 2.05874 16.2665 2.51113C16.3714 3.02254 16.2534 3.4946 15.9191 3.88799C15.4535 4.43217 15.4404 4.43217 13.2375 4.47807C11.3295 4.52396 10.1035 4.47151 9.63798 4.32071C9.07412 4.15024 8.37258 3.78964 7.99231 3.48149C7.58581 3.15367 7.33666 2.89796 7.33666 2.81928C7.33666 2.7865 7.31044 2.75372 7.27765 2.75372C7.19898 2.75372 6.62201 1.80959 6.51055 1.48833C6.46892 1.36983 6.55685 1.24574 6.68244 1.24574H10.7985H14.7744C15.0381 1.24574 15.2964 1.32078 15.5191 1.4621ZM12.7129 8.49717C12.7129 10.1363 12.6867 11.2705 12.6539 11.2509C12.5949 11.2115 11.7229 11.0411 11.5328 11.028C11.4803 11.0214 11.1394 10.9886 10.7788 10.9427C9.98547 10.8575 8.60206 10.9034 7.89396 11.0476C7.25143 11.1722 6.19584 11.4541 5.92702 11.5721C5.82212 11.618 5.50741 11.7361 5.2386 11.8344C4.96978 11.9393 4.61574 12.0967 4.45182 12.195C4.28791 12.2934 3.93386 12.4966 3.66505 12.6605C3.39624 12.8179 3.1602 12.9621 3.14053 12.9818C3.07497 13.0605 2.58979 13.3686 2.57012 13.3489C2.55701 13.3358 2.58979 13.0539 2.6488 12.713C2.7537 12.1229 2.92417 11.5262 3.11431 11.1001C3.16676 10.9886 3.2061 10.864 3.2061 10.8247C3.2061 10.7001 3.87486 9.46097 4.03221 9.28394C4.11744 9.19215 4.18957 9.08725 4.18957 9.04791C4.18957 9.01513 4.21579 8.98235 4.24202 8.98235C4.26824 8.98235 4.34036 8.89711 4.40593 8.79221C4.55673 8.53651 5.18615 7.91365 5.63198 7.57927C6.09094 7.23833 6.09094 7.23833 6.78592 6.87773C8.30702 6.09095 9.87401 5.75002 12.1425 5.71068C12.4565 5.70707 12.7129 5.96059 12.7129 6.27457V8.49717ZM15.2503 5.97294C17.5254 6.5958 19.4136 8.32015 20.1349 10.4313C20.5414 11.6049 20.6135 12.077 20.561 13.1588C20.4889 14.6537 20.2529 15.3355 19.571 16.024C18.9022 16.7058 18.0368 17.0271 17.0664 16.9681C15.6634 16.8763 14.4045 15.8207 14.0964 14.4898C14.0505 14.3062 14.0242 12.6212 14.0242 9.97237V6.11353C14.0242 5.92066 14.1935 5.77156 14.3848 5.79591C14.5881 5.81558 14.9749 5.90082 15.2503 5.97294Z" fill="white"/>
<circle id="Ellipse 1" cx="16.2534" cy="9.96579" r="1.18016" fill="white"/>
<path id="Vector_2" d="M12.8113 22.3378C11.4476 22.4165 10.0838 22.6656 8.91021 23.059C8.03821 23.3475 6.39909 24.1408 5.69755 24.6129C5.40251 24.8162 5.1337 24.9801 5.10092 24.9801C5.06814 24.9801 5.04191 24.9997 5.04191 25.0325C5.04191 25.0587 4.96979 25.1243 4.88455 25.1768C4.53051 25.3931 3.3569 26.4946 2.81927 27.1109C1.56043 28.5599 0.708097 29.9958 0.124573 31.648L0 31.9955H0.59008C1.27195 31.9955 1.38341 31.9496 1.50143 31.6545C1.54732 31.5365 1.67189 31.2546 1.7768 31.0251L1.96038 30.6186L2.20952 30.7432C3.12743 31.2087 4.67475 31.248 6.32697 30.8415C7.19242 30.6317 8.03821 30.6448 9.46751 30.9071C11.5787 31.2939 12.6146 31.071 13.3686 30.0679C13.821 29.4712 13.9783 28.9861 13.9849 28.2255C13.9915 27.4322 13.8341 26.9142 13.4079 26.3569C13.1588 26.0291 12.4114 25.3997 12.0901 25.2554C10.8116 24.6522 10.628 24.5342 10.3854 24.1736C10.2543 23.9704 10.2281 23.9769 10.9755 23.8392C12.0245 23.6426 12.7851 23.5835 13.821 23.6229C15.5257 23.695 16.5223 23.8917 18.1351 24.5014C18.876 24.7834 19.0465 24.9079 19.1383 25.2554C19.2301 25.5767 19.1776 25.9176 18.9547 26.5208C18.8105 26.9208 18.7908 27.0847 18.7842 27.8321C18.7777 28.9992 18.8826 29.3139 19.4661 29.8974C19.8464 30.2842 19.9447 30.3432 20.384 30.4744C21.2888 30.7366 21.7477 30.776 22.8033 30.6973C24.0491 30.5924 24.7113 30.5989 24.8621 30.7104C24.967 30.7891 25.4325 31.7201 25.4325 31.8512C25.4325 32.0086 26.7241 32.061 26.7831 31.9102C26.8224 31.7922 26.5143 31.0054 26.0816 30.1466C25.7668 29.5106 25.3144 28.7238 25.2292 28.6517C25.2095 28.632 25.0653 28.4288 24.9079 28.1993C24.1081 27.006 22.6525 25.6095 21.2232 24.6588C19.6235 23.5967 17.5647 22.7902 15.7486 22.5214C15.1913 22.4362 13.3489 22.2788 13.2047 22.305C13.1719 22.3116 12.9949 22.3247 12.8113 22.3378ZM9.10691 24.6654C9.46751 25.3603 10.0051 25.7996 11.146 26.3438C12.2147 26.8552 12.6474 27.3797 12.6474 28.1665C12.6474 28.8353 12.2671 29.4319 11.6836 29.681C11.441 29.7794 10.7329 29.7925 10.333 29.7073C8.50371 29.2877 7.14653 29.2352 6.02538 29.5237C5.08125 29.7728 3.98632 29.8318 3.30445 29.6679C3.03564 29.6089 2.78649 29.5171 2.74715 29.4712C2.5898 29.2811 4.19613 27.3994 5.30417 26.4881C6.16306 25.78 7.52025 24.9801 8.58239 24.5473C8.77909 24.4687 8.94955 24.3965 8.94955 24.3965C8.95611 24.39 9.02823 24.5146 9.10691 24.6654ZM20.9675 26.0422C21.1708 26.193 21.3478 26.3307 21.3675 26.3504C21.3871 26.37 21.551 26.5077 21.7281 26.652C22.2788 27.0847 23.1705 28.0157 23.6229 28.632L24.0556 29.209L23.7737 29.2549C23.1115 29.3598 21.7805 29.3926 21.3347 29.3139C20.7249 29.2024 20.4692 29.0779 20.266 28.7631C20.1021 28.5206 20.089 28.4484 20.1021 27.9042C20.1086 27.4387 20.148 27.2093 20.2791 26.8749C20.3709 26.6323 20.4627 26.2848 20.4889 26.1012C20.5151 25.9176 20.5479 25.7668 20.5676 25.7668C20.5872 25.7668 20.7643 25.8914 20.9675 26.0422Z" fill="white"/>
</g>
</svg>
